<?xml version="1.0" encoding="UTF-8" standalone="no"?>
<!DOCTYPE svg PUBLIC "-//W3C//DTD SVG 1.1//EN" "http://www.w3.org/Graphics/SVG/1.1/DTD/svg11.dtd">
<svg width="100%" height="100%" viewBox="0 0 422 431" version="1.1" xmlns="http://www.w3.org/2000/svg" xmlns:xlink="http://www.w3.org/1999/xlink" xml:space="preserve" xmlns:serif="http://www.serif.com/" style="fill-rule:evenodd;clip-rule:evenodd;stroke-linecap:round;stroke-linejoin:round;stroke-miterlimit:1.5;">
    <g id="Artboard1" transform="matrix(0.909483,0,0,0.951435,-69.1207,-130.347)">
        <rect x="76" y="137" width="464" height="453" style="fill:none;"/>
        <g transform="matrix(1.09953,0,0,1.05104,-39.4502,2.46636)">
            <path d="M499,212.966C499,184.285 475.715,161 447.034,161L187.966,161C159.285,161 136,184.285 136,212.966L136,472.034C136,500.715 159.285,524 187.966,524L447.034,524C475.715,524 499,500.715 499,472.034L499,212.966Z" style="fill:rgb(239,83,80);"/>
        </g>
        <g transform="matrix(1.09953,0,0,1.05104,-22.9573,-6.99304)">
            <path d="M129.862,510.052L198.662,443.476L212.489,457.765L143.919,524.119C138.38,520.376 133.601,515.593 129.862,510.052Z" style="fill:rgb(46,46,46);stroke:rgb(46,46,46);stroke-width:1px;"/>
            <g transform="matrix(1,0,0,1,-36,-36)">
                <path d="M338.5,242C418.804,242 484,307.196 484,387.5C484,467.804 418.804,533 338.5,533C258.196,533 193,467.804 193,387.5C193,307.196 258.196,242 338.5,242ZM338.5,258.082C409.928,258.082 467.918,316.072 467.918,387.5C467.918,458.928 409.928,516.918 338.5,516.918C267.072,516.918 209.082,458.928 209.082,387.5C209.082,316.072 267.072,258.082 338.5,258.082Z" style="fill:rgb(46,46,46);stroke:rgb(46,46,46);stroke-width:1px;"/>
            </g>
        </g>
        <g transform="matrix(1.09953,0,0,1.05104,-22.9573,-6.99304)">
            <g transform="matrix(1,0,0,1,-0.5,1)">
                <path d="M203,314L405.205,314.219" style="fill:none;stroke:rgb(115,92,92);stroke-width:5.49px;"/>
            </g>
            <g transform="matrix(1,0,0,1,1.72498,101)">
                <path d="M207,314L396.755,314" style="fill:none;stroke:rgb(115,92,92);stroke-width:5.49px;"/>
            </g>
            <g transform="matrix(1,0,0,1.07407,34,-26.3333)">
                <rect x="220" y="315" width="19" height="81" style="fill:white;"/>
            </g>
            <g transform="matrix(1,0,0,1.07407,-5,-26.3333)">
                <rect x="220" y="315" width="19" height="81" style="fill:white;"/>
            </g>
            <g transform="matrix(1,0,0,1.07407,73,-26.3333)">
                <rect x="220" y="315" width="19" height="81" style="fill:white;"/>
            </g>
            <g transform="matrix(1,0,0,1.07407,112,-26.3333)">
                <rect x="220" y="315" width="19" height="81" style="fill:white;"/>
            </g>
            <g transform="matrix(1,0,0,1.07407,150,-26.3333)">
                <rect x="220" y="315" width="19" height="81" style="fill:white;"/>
            </g>
            <path d="M234.462,314C234.462,314 233.663,409.847 234,395" style="fill:rgb(46,46,46);stroke:rgb(115,92,92);stroke-width:5.49px;"/>
            <g transform="matrix(1,0,0,1,154,-5.68434e-14)">
                <path d="M234.462,314C234.462,314 233.663,409.847 234,395" style="fill:rgb(46,46,46);stroke:rgb(115,92,92);stroke-width:5.49px;"/>
            </g>
            <g transform="matrix(1,0,0,1,116,0.218753)">
                <path d="M234.462,314C234.462,314 233.663,409.847 234,395" style="fill:rgb(46,46,46);stroke:rgb(115,92,92);stroke-width:5.49px;"/>
            </g>
            <g transform="matrix(1,0,0,1,77.5382,0)">
                <path d="M234.462,314C234.462,314 233.663,409.847 234,395" style="fill:rgb(46,46,46);stroke:rgb(115,92,92);stroke-width:5.49px;"/>
            </g>
            <g transform="matrix(1,0,0,1,38,0)">
                <path d="M234.462,314C234.462,314 233.663,409.847 234,395" style="fill:rgb(46,46,46);stroke:rgb(115,92,92);stroke-width:5.49px;"/>
            </g>
            <g transform="matrix(0.970372,0,0,0.857143,8.96249,57.4286)">
                <path d="M403.755,400.25C403.755,397.352 401.677,395 399.118,395L205.882,395C203.323,395 201.245,397.352 201.245,400.25L201.245,410.75C201.245,413.648 203.323,416 205.882,416L399.118,416C401.677,416 403.755,413.648 403.755,410.75L403.755,400.25Z" style="fill:white;"/>
            </g>
            <g transform="matrix(1.08395,0,0,0.653846,-37.5824,102.808)">
                <path d="M311.801,246.497C313.033,245.548 314.456,245.548 315.689,246.497C327.161,255.335 386.242,300.847 407.428,317.167C408.213,317.772 408.639,319.2 408.452,320.601C408.266,322.002 407.516,323 406.651,323C373.805,323 253.684,323 220.839,323C219.973,323 219.224,322.002 219.037,320.601C218.85,319.2 219.276,317.772 220.061,317.167C241.247,300.847 300.329,255.335 311.801,246.497Z" style="fill:white;"/>
            </g>
        </g>
    </g>
</svg>
