<?xml version="1.0" encoding="UTF-8" standalone="no"?>
<!DOCTYPE svg PUBLIC "-//W3C//DTD SVG 1.1//EN" "http://www.w3.org/Graphics/SVG/1.1/DTD/svg11.dtd">
<svg width="100%" height="100%" viewBox="0 0 518 567" version="1.1" xmlns="http://www.w3.org/2000/svg" xmlns:xlink="http://www.w3.org/1999/xlink" xml:space="preserve" xmlns:serif="http://www.serif.com/" style="fill-rule:evenodd;clip-rule:evenodd;stroke-linecap:round;stroke-linejoin:round;stroke-miterlimit:1.5;">
    <g transform="matrix(1,0,0,1,-842,-431)">
        <g id="Artboard2" transform="matrix(1,0,0,1.16427,0,-163.943)">
            <rect x="842" y="511" width="518" height="487" style="fill:none;"/>
            <g transform="matrix(-1.38095,-1.50088e-16,1.75125e-16,-1.2481,2649.05,1736.75)">
                <path d="M1121,627C1121,627 1016,781.151 1016,847.215C1016,902.288 1063.05,947 1121,947C1178.95,947 1226,902.288 1226,847.215C1226,781.151 1121,627 1121,627Z" style="fill:rgb(239,83,80);stroke:rgb(245,231,230);stroke-width:19.36px;"/>
            </g>
            <g transform="matrix(1,0,0,1,9,12.0247)">
                <g opacity="0.71">
                    <g transform="matrix(1.39098,0,0,1.19472,-419.686,-99.1272)">
                        <rect x="1060" y="648" width="66.5" height="66.5" style="fill:rgb(128,128,128);stroke:rgb(128,128,128);stroke-width:19.73px;"/>
                    </g>
                    <g transform="matrix(1.147,0,0,0.821421,-140.773,174.621)">
                        <path d="M1082.62,556L1147.25,627L1018,627L1082.62,556Z" style="fill:rgb(128,128,128);stroke:rgb(128,128,128);stroke-width:25.98px;"/>
                    </g>
                </g>
            </g>
            <g>
                <g transform="matrix(1.39098,0,0,1.19472,-419.686,-99.1272)">
                    <rect x="1060" y="648" width="66.5" height="66.5" style="fill:rgb(245,231,230);stroke:rgb(245,231,230);stroke-width:19.73px;"/>
                </g>
                <g transform="matrix(1.147,0,0,0.821421,-140.773,174.621)">
                    <path d="M1082.62,556L1147.25,627L1018,627L1082.62,556Z" style="fill:rgb(245,231,230);stroke:rgb(245,231,230);stroke-width:25.98px;"/>
                </g>
            </g>
        </g>
    </g>
</svg>
